<svg xmlns="http://www.w3.org/2000/svg" version="1.1" xmlns:xlink="http://www.w3.org/1999/xlink" preserveAspectRatio="none" x="0px" y="0px" width="380px" height="288px" viewBox="0 0 380 288">
	<defs>
		<linearGradient id="Gradient_1" gradientUnits="userSpaceOnUse" x1="-1.25" y1="168.6" x2="-1.25" y2="141.6" spreadMethod="pad">
			<stop  offset="0%" stop-color="#686338"/>
			<stop  offset="100%" stop-color="#605B2F"/>
		</linearGradient>
		<linearGradient id="Gradient_2" gradientUnits="userSpaceOnUse" x1="-4.6" y1="169.2" x2="-4.6" y2="130.8" spreadMethod="pad">
			<stop  offset="0%" stop-color="#605B37"/>
			<stop  offset="100%" stop-color="#323018"/>
		</linearGradient>
		<filter id="Filter_1" x="-20%" y="-20%" width="140%" height="140%" color-interpolation-filters="sRGB">
			<feColorMatrix in="SourceGraphic" type="matrix" values="0.67 0 0 0 0 0 0.63 0 0 0 0 0 0 0 0 0 0 0 1 0" result="result1"/>
		</filter>
		<g id="Layer10_0_FILL">
			<path fill="url(#Gradient_1)" stroke="none" d="
			M -5 100.7
			Q -5 100.95 -5 101.2 -5.1 101.4 -5.15 101.6 -5.5 102.5 -5.55 103.5 -6.15 103.9 -6.3 104.55 -6.4458984375 105.5126953125 -6.5 106.45 -6.528125 106.4625 -6.55 106.45
			L -6.55 106.5
			Q -6.95 106.65 -7.1 106.9 -7.5849609375 107.89296875 -7.85 108.95 -7.86796875 109.0146484375 -7.9 109.05 -8.55 109.7 -9.1 110.45 -10 111.75 -10.15 113.35 -10.55 118.2 -10.65 123.2 -10.75 129.85 -11.2 136.5 -11.3 138.15 -11.3 139.8 -11.2859375 140.48515625 -11.1 141 -11.22890625 141.8974609375 -11.35 142.8 -11.95 147.9 -12.55 153 -13.2158203125 158.7078125 -14.6 164.25 -13.513671875 164.434375 -12.9 164.85 -10.4333984375 163.409375 -7.65 164.3 -6.45 163.8 -5.25 163.5 -4.15 163.55 -3.7 164.55 -3.65 164.6 -3.6 164.7 -2.25 164.4 -1.15 165.35 -0.229296875 165.5673828125 0.45 166 -1.9216796875 161.4572265625 -3.7 156.6 -3.7826171875 156.37265625 -3.85 156.1 -4.9447265625 154.439453125 -4.6 151.95 -3.35 143.15 -3.2 134.25 -3.05 125.5 -2.5 116.9 -2.3 114.05 -1.85 111.35 -1.6923828125 110.5626953125 -1.3 109.95 -1.233984375 109.1763671875 -1.3 108.35 -1.3 107.9 -1.2 107.5 -1.1 107.35 -1.05 107.25 -0.95 107.15 -0.8 107.05
			L -0.75 107.05
			Q -0.9998046875 105.48203125 -2.65 104.85 -2.8 104.85 -3 104.9
			L -3.05 104.9
			Q -3.1755859375 104.3734375 -3.35 103.85 -3.3 103.65 -3.3 103.5 -3.05 101.8 -3.5 100.15 -3.6 100.05 -3.65 100 -3.95 99.85 -4.2 99.7
			L -4.25 99.7
			Q -4.4 99.8 -4.65 99.8 -4.7 99.9 -4.8 100 -4.85 100.05 -4.9 100.15 -5 100.4 -5 100.7 Z"/>
		</g>
		<g id="Layer10_1_FILL">
			<path fill="url(#Gradient_2)" stroke="none" d="
			M 0.4 165.75
			Q 1.5927734375 165.1794921875 2.7 165.25
			L 2.65 165.1
			Q 0.9234375 161.6720703125 -0.65 158.1 -0.6994140625 157.9498046875 -0.8 157.75
			L -1.3 156.55
			Q -1.62109375 155.8435546875 -1.75 155.1 -1.40234375 154.7259765625 -1.3 154.05 -1.21484375 153.5265625 -1.15 153 -0.95 151.3642578125 -0.95 149.7 -0.95 145 -0.8 140.3 -0.737890625 138.35 -0.65 136.4 -0.35 129.7 0.05 123.05 0.5 116.25 -0.75 109.75 -0.7568359375 109.7224609375 -0.8 109.7
			L -1.25 109.7
			Q -1.26796875 109.8380859375 -1.3 109.95 -1.6923828125 110.5626953125 -1.85 111.35 -2.3 114.05 -2.5 116.9 -3.05 125.5 -3.2 134.25 -3.251171875 137.280859375 -3.45 140.3 -3.7755859375 146.146875 -4.6 151.95 -4.675390625 152.49453125 -4.7 153 -4.6998046875 154.8080078125 -3.85 156.1 -3.7826171875 156.37265625 -3.7 156.6 -1.96640625 161.3349609375 0.35 165.75
			L 0.4 165.75 Z"/>
		</g>
		<g id="l2_0_Layer0_0_FILL">
			<path fill="#698123" stroke="none" d="
			M 116.95 57
			Q 109.6 58.45 102.9 61.95 98.9 64 95.75 67.1 90.75 72.05 88.2 78.6 83.45 90.9 89.65 102.4
			L 90.5 102.05 90 101.05
			Q 90.3513671875 101.4609375 90.7 101.85 93.3013671875 104.916796875 95.9 108
			L 95.4 108.65
			Q 101.5 110.7 107.65 112.6 115.65 115.25 124 113.55 133.1 111.55 139.05 104.65 142.5955078125 100.55078125 144.55 95.45 147.1 88.65 145.55 81.6 144.75 77.9 142.85 74.45
			L 143.15 73.3 142.4 73.55
			Q 140.41171875 70.399609375 139.05 66.95
			L 136.6 57
			Q 136.5779296875 55.0439453125 137.05 53.35
			L 137.65 52.4 137.3 52
			Q 136.7 52 136.1 52.35 135.65 52.55 135.2 52.7 132.05 54.1 129.65 56.65
			L 121.4 56.35
			Q 119.1693359375 56.573046875 116.95 57
			M 104.6 62.4
			Q 106.3 61.4 108.1 60.65
			L 114.65 80.8 114.55 79.15 115.15 79.05 108.45 60.55 121.75 57.7 126.75 68.5 116.65 83.1 116.1 81.65 116.5 83.5 127.15 68.4 121.35 79.1 122.05 78.8 127.3 69.35 127.65 69.45 134.75 56.3
			Q 134.7822265625 56.6509765625 134.8 57 135.05 58.4 135.35 59.8 136.45 64.9 139.05 69.5 140.1509765625 71.70234375 141.15 73.95 140.1 74.1892578125 139.05 74.45
			L 130.05 76.8 131.8 77.15 121.15 79.45 116.5 85.45 117.15 85.9 118.3 85.65 117.25 84.6 121.25 80.05 141.6 74.95
			Q 144.4 80.9 144.25 87.45 144.25 88.3 144.2 89.15 141.6294921875 89.0609375 139.05 89.1
			L 117 90.5 119.05 91.25 139.05 90.25
			Q 141.5720703125 90.067578125 144.1 89.85 143.5 94.1 141.3 97.65 140.241796875 99.365234375 139.05 100.95
			L 135.85 104.95 116.6 103.1 134.6 106.05
			Q 133.7 106.75 132.7 107.35 126 111.45 117.9 111.25 107.7 110.95 97.65 108.4
			L 98.3 107.65 97.2 106.05 97.1 108.35
			Q 96.75 108.25 96.65 108.05 95.45 105.85 94.5 103.45
			L 90.25 99.4 89.45 99.8
			Q 85.8 89.9 88.75 79.7 88.85 81.05 89 82.4 90 91.8 93.55 100.3
			L 90.95 89.05
			Q 90.7 87.55 90.45 86.05 89.8 82.25 90.45 78.5 91.45 72.6 95.5 68.4 95.75 71.35 96.1 74.35 97.15 83.15 100.7 91.2
			L 100.95 89.65 103.7 96.3 104.05 95.85
			Q 102.4 92.05 100.9 88.25 98.05 80.9 96.65 73.3 96.2 70.7 95.75 68.15 100.1 65.15 104.6 62.4
			M 122.25 57.65
			L 130.3 58 133.05 55.9 126.95 68 122.25 57.65
			M 96.35 104.95
			L 97.15 103.9 93.95 97.8 96.35 104.95
			M 102.55 100.65
			L 105.1 101.9 109.4 102.3 102.55 100.65
			M 111.6 90.15
			L 112.1 90.1 114.45 87.6 114.5 86.3 111.6 90.15
			M 118 91.3
			L 113.5 90.75 111.45 90.8 110.6 91.7 118 91.3 Z"/>
			<path fill="#89A72E" stroke="none" d="
			M 130.3 58
			L 122.25 57.65 126.95 68 133.05 55.9 130.3 58
			M 135.35 59.8
			Q 135.05 58.4 134.8 57 134.7822265625 56.6509765625 134.75 56.3
			L 127.65 69.45 127.3 69.35 122.05 78.8 130.05 76.8 139.05 74.45
			Q 140.1 74.1892578125 141.15 73.95 140.1509765625 71.70234375 139.05 69.5 136.45 64.9 135.35 59.8
			M 119.05 91.25
			L 119.8 91.55 118 91.3 110.6 91.7 102.55 100.65 109.4 102.3 105.1 101.9 110.8 104.15 102.05 101.25 97.2 106.05 98.3 107.65 97.65 108.4
			Q 107.7 110.95 117.9 111.25 126 111.45 132.7 107.35 133.7 106.75 134.6 106.05
			L 116.6 103.1 135.85 104.95 139.05 100.95
			Q 140.241796875 99.365234375 141.3 97.65 143.5 94.1 144.1 89.85 141.5720703125 90.067578125 139.05 90.25
			L 119.05 91.25
			M 115.15 79.05
			L 116.1 81.65 116.65 83.1 126.75 68.5 121.75 57.7 108.45 60.55 115.15 79.05
			M 117.25 84.6
			L 118.3 85.65 117.15 85.9 116.5 85.45 114.45 87.6 112.1 90.1 117 90.5 139.05 89.1
			Q 141.6294921875 89.0609375 144.2 89.15 144.25 88.3 144.25 87.45 144.4 80.9 141.6 74.95
			L 121.25 80.05 117.25 84.6
			M 89 82.4
			Q 88.85 81.05 88.75 79.7 85.8 89.9 89.45 99.8
			L 90.25 99.4 94.5 103.45 93.55 100.3
			Q 90 91.8 89 82.4
			M 90.95 89.05
			L 90.95 88.3 93.95 97.8 97.15 103.9 102.85 97.25 100.7 91.2
			Q 97.15 83.15 96.1 74.35 95.75 71.35 95.5 68.4 91.45 72.6 90.45 78.5 89.8 82.25 90.45 86.05 90.7 87.55 90.95 89.05
			M 108.1 60.65
			Q 106.3 61.4 104.6 62.4 100.1 65.15 95.75 68.15 96.2 70.7 96.65 73.3 98.05 80.9 100.9 88.25 102.4 92.05 104.05 95.85
			L 108.5 91.1 107.55 90.8 109.05 90.6 115.25 83.65 114.65 80.8 108.1 60.65 Z"/>
			<path fill="#52641C" stroke="none" d="
			M 100.95 89.65
			L 100.7 91.2 102.85 97.25 97.15 103.9 96.35 104.95 93.95 97.8 90.95 88.3 90.95 89.05 93.55 100.3 94.5 103.45
			Q 95.45 105.85 96.65 108.05 96.75 108.25 97.1 108.35
			L 97.2 106.05 102.05 101.25 110.8 104.15 105.1 101.9 102.55 100.65 110.6 91.7 111.45 90.8 113.5 90.75 118 91.3 119.8 91.55 119.05 91.25 117 90.5 112.1 90.1 111.6 90.15 114.5 86.3 114.45 87.6 116.5 85.45 121.15 79.45 131.8 77.15 130.05 76.8 122.05 78.8 121.35 79.1 127.15 68.4 116.5 83.5 116.1 81.65 115.15 79.05 114.55 79.15 114.65 80.8 115.25 83.65 109.05 90.6 107.55 90.8 108.5 91.1 104.05 95.85 103.7 96.3 100.95 89.65 Z"/>
		</g>
		<g id="l1_0_Layer0_0_FILL">
			<path fill="#89A72E" stroke="none" d="
			M -37.25 6.2
			Q -37.2109375 6.248828125 -37.2 6.3
			L -37.15 6.3 -36.7 6.65 -37.25 6.2
			M -7.8 24.2
			Q -6.65 24.3 -5.45 24.45
			L -19.3 5.1
			Q -21.623828125 5.2224609375 -23.95 5.3 -24 5.25 -24.05 5.2 -24.1 5.15 -24.15 5.1 -27.5 5.25 -30.8 6.05 -33.626171875 6.7150390625 -36.45 7.15 -31.128125 13.5384765625 -24.25 18 -17.75 22.2 -10.15 23.8 -9 24 -7.8 24.2
			M -17.2 5.6
			L -17.5 5.15 -13.55 12.1 -3.95 24.55 13.35 23.9 -2.1 0.05
			Q -7.7060546875 2.573828125 -13.6 4.35 -15.4384765625 4.9220703125 -17.2 5.6
			M -6.25 -13.05
			Q -5.45 -14.15 -4.3 -14.9
			L 1.1 -23.85 -6.35 -23.15
			Q -9.8041015625 -19.6640625 -13.15 -15.95 -18.05 -10.55 -22.55 -4.75 -25.2 -1.35 -27.75 2.05 -27.9 2.1 -28 2.1
			L -28.05 2.05 -28.5 2.75 -16 1.4
			Q -11.35 -5.9 -6.25 -13.05
			M -33.15 -7.65
			Q -34.3 -5.75 -35.5 -3.8 -38.3 0.7 -36.3 4.9
			L -30.15 3 -18.2 -14.5 -17.45 -14.6 -18.95 -12.15 -15.55 -16.3 -15.55 -17.35 -10.85 -22.55
			Q -15.55 -21.4 -20.1 -19.35 -28.4 -15.55 -33.15 -7.65
			M 9.55 -2.85
			L 7.1 -2.35 12.85 -3.35
			Q 12.8837890625 -3.1521484375 12.85 -2.95 12.85 -2.85 12.8 -2.75 6.6935546875 -0.4431640625 0.35 1.3
			L 6.35 9.4 6.1 9.9 4.5 8.5 14.5 23.65
			Q 20.1 21.45 24.2 16.8 27.1 13.55 29.25 9.5
			L 16.4 -3.85 9.55 -2.85
			M 11.7 -12.75
			Q 11.45 -12.55 11.1 -12.55 10.31171875 -11.8744140625 9.5 -11.2
			L 4.6 -5.2 3.15 -2.85 15.4 -4.65 15.85 -5.1 16.65 -4.8 37.85 -8.7 37.8 -8.85
			Q 27.75 -10.1 20.25 -17 19.537109375 -17.6708984375 18.8 -18.35 16.4083984375 -16.742578125 14.25 -14.8 13 -13.7 11.7 -12.75
			M 11.5 -15.2
			L 16.4 -20.35 9.35 -22.85
			Q 8.1404296875 -23.1015625 6.9 -23.3 5.9828125 -23.3982421875 5.05 -23.5 5.584375 -23.43125 6.1 -23.4 4.5767578125 -21.8095703125 3.15 -20.15 -1.6 -14.5 -6.55 -9 -7.8521484375 -7.5728515625 -9.1 -6.1
			L -9.15 -6.05 -13.2 0.75 -2.85 -1.65 -3.05 -3 -2.25 -1.75 1.35 -2.45 4.85 -7.25 11.5 -15.2
			M 34.05 -6.7
			L 33.9 -6.6
			Q 32.5330078125 -6.25390625 31.15 -5.95 25.06015625 -4.6365234375 19.1 -2.85
			L 29.75 8.3 31.2 -4 34.05 -6.7 Z"/>
			<path fill="#B3C530" stroke="none" d="
			M -19.3 5.1
			L -20.2 3.85 -34.65 6 -36.7 6.65 -37.15 6.3 -37.2 6.3
			Q -36.81796875 6.74375 -36.45 7.15 -33.626171875 6.7150390625 -30.8 6.05 -27.5 5.25 -24.15 5.1 -24.1 5.15 -24.05 5.2 -24 5.25 -23.95 5.3 -21.623828125 5.2224609375 -19.3 5.1
			M -2.1 0.05
			L -2.15 0 -13.75 2.2 -14.45 3.15 -15.05 2.55 -18.45 3.45 -17.5 5.15 -17.2 5.6
			Q -15.4384765625 4.9220703125 -13.6 4.35 -7.7060546875 2.573828125 -2.1 0.05
			M -6.35 -23.15
			L -9.6 -22.85
			Q -12.2 -19.95 -14.65 -16.85 -18.95 -11.3 -23.05 -5.55
			L -28.05 2.05 -28 2.1
			Q -27.9 2.1 -27.75 2.05 -25.2 -1.35 -22.55 -4.75 -18.05 -10.55 -13.15 -15.95 -9.8041015625 -19.6640625 -6.35 -23.15
			M 7.1 -2.35
			L 6.7 -1.75 1.95 -0.8 1.1 0.4 1.55 -0.7 -0.8 -0.25 0.35 1.3
			Q 6.6935546875 -0.4431640625 12.8 -2.75 12.85 -2.85 12.85 -2.95 12.8837890625 -3.1521484375 12.85 -3.35
			L 7.1 -2.35
			M 5.05 -23.5
			L 2 -23.8
			Q 1.6740234375 -23.8205078125 1.35 -23.85
			L -3.85 -15.05 -6.25 -11 -9.1 -6.1
			Q -7.8521484375 -7.5728515625 -6.55 -9 -1.6 -14.5 3.15 -20.15 4.5767578125 -21.8095703125 6.1 -23.4 5.584375 -23.43125 5.05 -23.5
			M 18.8 -18.35
			Q 17.837109375 -19.2291015625 16.85 -20.1
			L 9.5 -11.2
			Q 10.31171875 -11.8744140625 11.1 -12.55 11.45 -12.55 11.7 -12.75 13 -13.7 14.25 -14.8 16.4083984375 -16.742578125 18.8 -18.35
			M 17.9 -4.1
			L 19.1 -2.85
			Q 25.06015625 -4.6365234375 31.15 -5.95 32.5330078125 -6.25390625 33.9 -6.6
			L 34.05 -6.7 17.9 -4.1 Z"/>
			<path fill="#698123" stroke="none" d="
			M -14.45 3.15
			L -13.75 2.2 -15.05 2.55 -14.45 3.15
			M 4.85 -7.25
			L 1.35 -2.45 -2.25 -1.75 -3.05 -3 -2.85 -1.65 -13.2 0.75 -9.15 -6.05 -9.1 -6.1 -6.25 -11 -14.3 1.15 2.15 -2.1 4.85 -7.25
			M 16.4 -20.35
			L 11.5 -15.2 4.6 -5.2 9.5 -11.2 16.85 -20.1
			Q 17.837109375 -19.2291015625 18.8 -18.35 19.537109375 -17.6708984375 20.25 -17 27.75 -10.1 37.8 -8.85
			L 37.7 -9.8
			Q 34.7 -10.65 31.85 -11.85 28.85 -13.05 26.5 -15.15 19.1 -21.7 9.35 -24.35 4.8076171875 -25.6548828125 -0.1 -25.7 -10.35 -25.8 -19.75 -21.85 -28.25 -18.4 -33.2 -11.05 -38.3 -3.6 -38.25 5.45
			L -39.3 5.75
			Q -31.95 16.05 -20.5 21.4 -13.9 24.45 -6.75 25.3 1.812890625 26.15625 10.4 25.25 14.45 25.3 17.8 23.55 26.65 18.85 30.85 9.85
			L 31.6 -0.75 32 -1.2 32.1 -3.25
			Q 34.7 -7 39.35 -8.65
			L 38.85 -9.1 37.85 -8.7 16.65 -4.8 15.85 -5.1 15.4 -4.65 3.15 -2.85 2.85 -2.25 14.1 -3.6 9.55 -2.85 16.4 -3.85 29.25 9.5
			Q 27.1 13.55 24.2 16.8 20.1 21.45 14.5 23.65
			L 4.5 8.5 -2.15 0 -2.1 0.05 13.35 23.9 -3.95 24.55 -13.55 12.1 -13.95 12.5 -19.5 3.7
			Q -20.9 3.7 -22.25 3.75 -28.6 4.15 -34.65 6
			L -20.2 3.85 -19.3 5.1 -5.45 24.45
			Q -6.65 24.3 -7.8 24.2 -9 24 -10.15 23.8 -17.75 22.2 -24.25 18 -31.128125 13.5384765625 -36.45 7.15 -36.81796875 6.74375 -37.2 6.3 -37.2109375 6.248828125 -37.25 6.2
			L -36.3 4.9
			Q -38.3 0.7 -35.5 -3.8 -34.3 -5.75 -33.15 -7.65 -28.4 -15.55 -20.1 -19.35 -15.55 -21.4 -10.85 -22.55
			L -15.55 -17.35 -15.55 -16.3 -18.95 -12.15 -23.05 -5.55
			Q -18.95 -11.3 -14.65 -16.85 -12.2 -19.95 -9.6 -22.85
			L -6.35 -23.15 1.1 -23.85 -4.3 -14.9 -3.85 -15.05 1.35 -23.85
			Q 1.6740234375 -23.8205078125 2 -23.8
			L 5.05 -23.5
			Q 5.9828125 -23.3982421875 6.9 -23.3 8.1404296875 -23.1015625 9.35 -22.85
			L 16.4 -20.35
			M 19.1 -2.85
			L 17.9 -4.1 34.05 -6.7 31.2 -4 29.75 8.3 19.1 -2.85 Z"/>
			<path fill="#52641C" stroke="none" d="
			M 2.85 -2.25
			L 3.15 -2.85 4.6 -5.2 11.5 -15.2 4.85 -7.25 2.15 -2.1 -14.3 1.15 -6.25 -11 -3.85 -15.05 -4.3 -14.9
			Q -5.45 -14.15 -6.25 -13.05 -11.35 -5.9 -16 1.4
			L -28.5 2.75 -28.05 2.05 -23.05 -5.55 -18.95 -12.15 -17.45 -14.6 -18.2 -14.5 -30.15 3 -36.3 4.9 -37.25 6.2 -36.7 6.65 -34.65 6
			Q -28.6 4.15 -22.25 3.75 -20.9 3.7 -19.5 3.7
			L -13.95 12.5 -13.55 12.1 -17.5 5.15 -18.45 3.45 -15.05 2.55 -13.75 2.2 -2.15 0 4.5 8.5 6.1 9.9 6.35 9.4 0.35 1.3 -0.8 -0.25 1.55 -0.7 1.1 0.4 1.95 -0.8 6.7 -1.75 7.1 -2.35 9.55 -2.85 14.1 -3.6 2.85 -2.25 Z"/>
		</g>
		<g id="Layer2_0_FILL">
			<path fill="#BF472F" stroke="none" d="
			M -56.9 13
			Q -56.783984375 13.299609375 -56.6 13.6 -56.7115234375 13.410546875 -56.8 13.2 -56.720703125 13.146875 -56.65 13.1 -56.759765625 13.0599609375 -56.9 13
			M -51.25 15.75
			Q -51.2033203125 15.76875 -51.15 15.75 -50.2986328125 15.4255859375 -50.1 14.65 -50.1984375 14.787109375 -50.3 14.9 -50.7396484375 15.412890625 -51.25 15.75
			M -51.6 10.15
			Q -52.6986328125 9.2923828125 -54.55 9 -55.1 9.05 -55.65 9.45 -55.690234375 9.4767578125 -55.75 9.5 -54.4369140625 10.0083984375 -55.2 11.4 -55.25 11.5 -55.3 11.6 -55.30703125 11.673046875 -55.35 11.75 -54.870703125 11.8767578125 -54.75 12.4 -54.75 12.5 -54.7 12.6 -54.7978515625 13.0404296875 -55.15 13.3 -54.141796875 13.5138671875 -53.05 13.15 -52.4326171875 11.5861328125 -51.6 10.15
			M -58.65 2.45
			Q -59.066796875 2.3220703125 -59.55 2.25 -59.75 2.3 -59.95 2.35 -60.686328125 2.6609375 -61.1 3.1
			L -61.05 3.1
			Q -59.35 4.1 -60.8 5.9 -60.8490234375 5.966796875 -60.9 6 -60.0541015625 7.429296875 -58.85 7.55 -58.798828125 7.4052734375 -58.75 7.25 -58.9796875 7.1517578125 -59.3 6.9 -59.35 6.8 -59.35 6.7 -59.4 6.5 -59.4 6.35 -59.3 6.25 -59.25 6.15 -59.15 6.05 -59.05 5.95 -59 5.9 -58.9 5.85 -58.75 5.8 -58.55 5.75 -58.3697265625 5.8400390625 -58.2 5.95 -58.0890625 5.5607421875 -58.05 5.15 -57.9296875 3.6451171875 -58.65 2.45
			M -55.7 4.75
			Q -55.555859375 5.143359375 -55.35 5.55 -55.300390625 5.2875 -55.15 4.95 -55.3728515625 4.9228515625 -55.7 4.75
			M -54.9 1.35
			Q -54.8384765625 1.35 -54.8 1.35 -53.1 1.8 -53.85 3.3 -53.9 3.4 -54 3.5 -54.08515625 3.9177734375 -54.2 4.2 -53.54375 4.3498046875 -53.45 5.1 -53.45 5.15 -53.45 5.25 -53.6 5.65 -53.8 6 -53.95 6.2 -54.05 6.4 -54.5671875 6.4251953125 -54.9 6.3 -54.7494140625 6.5123046875 -54.6 6.7 -53.7328125 7.8111328125 -52.6 8.1 -52.035546875 6.0716796875 -52.9 3.95 -53.55078125 2.387890625 -54.05 0.75 -54.5 0.9 -54.75 1.2 -54.8154296875 1.27578125 -54.9 1.35
			M -49.9 2.35
			Q -49.203125 3.7732421875 -49 5.5 -48.92890625 6.116015625 -48.95 6.7 -48.8669921875 6.4619140625 -48.85 6.2 -48.7212890625 3.8072265625 -49.9 2.35
			M -53.95 -6.35
			Q -53.886328125 -6.3412109375 -53.8 -6.35 -54.224609375 -6.31640625 -54.65 -6.15 -54.408984375 -6.0392578125 -54.2 -5.9 -54.15 -5.85 -54.05 -5.75 -54.1 -4.7 -55.2 -4.1 -55.4 -4 -55.55 -3.9 -55.6107421875 -3.90546875 -55.7 -3.95 -55.579296875 -3.576171875 -55.45 -3.3 -55.4083984375 -3.5923828125 -55.05 -3.7 -54.95 -3.75 -54.8 -3.8 -54.4 -3.7 -54.25 -3.3 -54.2 -3.2 -54.2 -3.1 -54.3 -2.9 -54.4 -2.75 -54.5 -2.65 -54.55 -2.6 -54.7 -2.6 -54.8 -2.55 -54.865625 -2.5560546875 -54.95 -2.6 -54.264453125 -1.994921875 -53.15 -2.2 -53.358203125 -4.191015625 -53.9 -6.15 -53.9283203125 -6.23515625 -53.95 -6.35
			M -27.95 -50.25
			Q -28.1109375 -50.316796875 -28.3 -50.45 -27.9185546875 -50.15 -27.45 -50.15 -23.8734375 -50.0087890625 -22.9 -53.35 -23.7560546875 -51.783984375 -25.55 -50.65 -25.9 -50.4 -26.3 -50.35 -27.19296875 -50.1810546875 -27.95 -50.25
			M -26.15 -59.8
			Q -26.2443359375 -59.3705078125 -26.75 -58.85 -26.95 -58.6 -27.4 -58.45 -27.476953125 -58.291015625 -27.55 -58.15 -27.340234375 -58.3 -27.05 -58.3 -26.4 -58.25 -26.25 -57.65 -26.2 -57.55 -26.2 -57.45 -26.3 -57 -26.65 -56.75 -26.85 -56.65 -27.05 -56.55 -27.6 -56.6 -27.9 -57.05 -27.9 -57.25 -27.9 -57.45 -27.9 -57.623046875 -27.9 -57.75 -28.4755859375 -57.3140625 -29.3 -57.85 -30.044140625 -55.9251953125 -29.9 -54.15 -29.05390625 -54.127734375 -28.3 -53.6 -27.4 -53.6 -26.45 -53.6 -24.4212890625 -56.6205078125 -26.15 -59.8
			M -27.25 -60.85
			Q -26.9123046875 -60.7486328125 -26.7 -60.65 -26.7845703125 -60.8244140625 -26.9 -61 -27.06875 -60.923828125 -27.25 -60.85
			M -31.7 -51.3
			Q -30.2064453125 -51.7955078125 -30 -53.55 -30.6203125 -52.3564453125 -31.7 -51.3
			M -34.5 -61.4
			Q -34.648046875 -61.4265625 -34.8 -61.45 -34.95 -61.5 -35.05 -61.55 -35.3 -61.6 -35.55 -61.7
			L -35.55 -61.65
			Q -35.7306640625 -61.619921875 -35.9 -61.6 -34.56015625 -60.6224609375 -36.15 -59.2 -36.6 -58.85 -37.15 -58.55 -37.4248046875 -58.419921875 -37.7 -58.4 -38.1287109375 -55.780859375 -36.6 -53.55 -33.72265625 -53.98515625 -32.8 -56.85 -32.7 -57.05 -32.55 -57.25 -32.9134765625 -59.6125 -34.5 -61.4
			M -35 -57.9
			Q -34.95 -57.8 -34.95 -57.7 -35.05 -57.25 -35.4 -57 -35.6 -56.9 -35.8 -56.8 -36.35 -56.85 -36.65 -57.3 -36.65 -57.5 -36.65 -57.7 -36.65 -57.9 -36.65 -58.05 -36.4 -58.55 -35.8 -58.55 -35.15 -58.5 -35 -57.9
			M -19.05 -57.2
			Q -18.70859375 -57.237890625 -18.4 -57.35 -17.22109375 -57.728125 -16.75 -58.55 -17.371875 -57.9431640625 -18.3 -57.5 -18.66875 -57.3263671875 -19.05 -57.2
			M -21.7 -65.9
			Q -21.7892578125 -65.831640625 -21.9 -65.8 -21.47109375 -65.56953125 -21.4 -65 -21.4 -64.9 -21.4 -64.8 -22.0861328125 -62.87890625 -23.7 -62.75 -23.6712890625 -62.373828125 -23.6 -62 -23.380078125 -60.780859375 -22.85 -59.85 -21.960546875 -60.3978515625 -20.65 -60.15 -19.7 -60 -19.05 -60.6 -18.65 -60.95 -18.45 -61.4 -18.9 -64.05 -21.05 -65.55 -21.337109375 -65.755078125 -21.7 -65.9
			M -22.1 -63.05
			Q -21.95 -63.05 -21.8 -63.1
			L -21.8 -63.15
			Q -21 -63 -20.9 -62.25 -20.9 -62.15 -20.9 -62.05 -21.5 -60.7 -22.7 -61.75 -22.85 -62.25 -22.55 -62.65 -22.45 -62.85 -22.25 -63 -22.2 -63.05 -22.1 -63.05
			M -27.45 -78.15
			Q -27.55 -77.95 -27.7 -77.75 -27.1126953125 -75.671875 -28.85 -76.2 -28.5318359375 -73.48984375 -26.2 -72.3 -26.0521484375 -72.878515625 -25.3 -73.65 -24.15 -74.85 -22.95 -76 -22.6 -79.45 -25.75 -80.15 -26.05 -80.2 -26.4 -80.05 -27.1744140625 -79.6400390625 -27.9 -79.65 -27.4400390625 -79.4099609375 -27.3 -78.85 -27.25 -78.8 -27.25 -78.7 -27.3 -78.4 -27.45 -78.15
			M -27.05 -77.5
			Q -26.85 -78.2 -26.15 -78.5 -25.95 -78.5 -25.8 -78.55 -25.15 -78.5 -25 -77.9 -24.95 -77.8 -24.95 -77.7 -25 -77.5 -25.1 -77.35 -25.2 -77.15 -25.3 -76.95 -25.25 -76.25 -25.55 -75.65 -25.65 -75.45 -25.8 -75.3 -27.85 -75.3 -27.05 -77.5
			M -16.05 -99.7
			Q -16.0658203125 -99.7736328125 -16.1 -99.85 -16.185546875 -99.5203125 -16.25 -99.15 -16.467578125 -97.5830078125 -16.45 -96.05 -15.07890625 -96.098828125 -13.7 -95.45 -13.2 -95.25 -12.7 -95.05 -12.5 -94.95 -12.3 -94.75 -12.3 -94.55 -12.25 -94.4 -12.25 -94.25 -12.25 -94.15 -12.05 -94.35 -11.9 -94.65 -11.8 -94.8 -11.7 -95 -11.7 -98.4248046875 -14.45 -100 -14.5279296875 -99.86328125 -14.6 -99.75 -14.7 -99.55 -14.8 -99.4 -15.6 -98.9 -16.05 -99.7
			M -14.35 -99.05
			Q -14.2 -99.05 -14.05 -99.1
			L -14.05 -99.15
			Q -13.25 -99.05 -13.15 -98.25 -13.1 -98.15 -13.1 -98.05 -13.75 -96.7 -14.95 -97.75 -15.1 -98.25 -14.8 -98.65 -14.7 -98.85 -14.5 -99 -14.45 -99.05 -14.35 -99.05
			M -50.75 -3.4
			Q -50.9279296875 -2.3345703125 -50.85 -1.35 -49.946875 -1.4849609375 -48.85 -0.95 -48.25 -0.7 -47.65 -0.35 -46.746484375 0.1017578125 -46.95 0.95 -45.8734375 -2.5197265625 -48 -5.8 -47.7884765625 -4.95859375 -48.7 -3.9 -48.7271484375 -3.869921875 -48.75 -3.85 -48.60234375 -3.7515625 -48.45 -3.65 -48.4 -3.6 -48.3 -3.5 -47.95 -1.35 -49.75 -1.55 -50.15 -1.6 -50.2 -2.05 -50.226171875 -2.5986328125 -50.05 -3.1 -50.490625 -3.1767578125 -50.75 -3.4
			M -21.5 -95.25
			Q -21.8 -95.2 -22 -95 -22.4052734375 -94.614453125 -22.75 -94.2 -22.641796875 -94.2 -22.55 -94.2 -21.1935546875 -93.5375 -21.5 -92.55 -21.3859375 -92.5357421875 -21.3 -92.55 -19.25 -91.65 -21 -90.05 -22 -89.15 -22.9 -90.25 -23.09765625 -90.4759765625 -23.2 -90.8 -23.599609375 -90.776171875 -23.95 -91.4 -24.05 -90.7453125 -24.05 -90.05 -24 -89.5 -23.85 -89 -23.75234375 -88.7298828125 -23.65 -88.5 -23.5986328125 -88.5123046875 -23.55 -88.55 -22.65 -89.2 -21.55 -89.05 -19.6 -88.75 -17.7 -89.2 -17.75 -92.85 -20.55 -95 -20.7650390625 -95.1720703125 -20.95 -95.4 -21.2119140625 -95.31171875 -21.5 -95.25
			M -3.9 -88.6
			Q -3.68984375 -88.74453125 -3.5 -88.9 -3.6248046875 -88.87109375 -3.75 -88.85 -3.6490234375 -88.9984375 -3.55 -89.15 -3.75234375 -88.8615234375 -3.95 -88.6 -3.92578125 -88.582421875 -3.9 -88.6
			M -6.95 -89.25
			Q -6.71953125 -89.0140625 -6.45 -88.8 -6.153125 -88.56015625 -5.85 -88.45 -5.6162109375 -88.62890625 -5.4 -88.85 -6.2185546875 -88.9115234375 -6.95 -89.25
			M -4.4 -97.1
			Q -4.5798828125 -96.864453125 -4.8 -96.7 -4.0525390625 -95.8134765625 -5.45 -94.6 -6 -94.15 -6.55 -94.65 -6.7 -94.8 -6.85 -95 -7.0541015625 -95.8576171875 -6.65 -96.55 -6.9046875 -96.7013671875 -7.2 -96.95 -7.2306640625 -96.9806640625 -7.25 -97 -8.1431640625 -95.5494140625 -8.3 -93.8 -7.274609375 -93.921484375 -6.6 -92.85 -6.4 -92.5 -6.05 -92.4 -5.05 -92.85 -4.3 -92.05 -4.25 -92 -4.2 -91.9 -4.05 -91.9 -3.85 -91.9 -2.578515625 -94.853125 -4.4 -97.1 Z"/>
			<path fill="#EFC7BE" stroke="none" d="
			M -55.55 13.45
			Q -55.35 13.4 -55.15 13.3
			L -55.15 13.3
			Q -54.7978515625 13.0404296875 -54.7 12.6 -54.75 12.5 -54.75 12.4 -54.870703125 11.8767578125 -55.35 11.75 -55.4837890625 13.1259765625 -56.25 13.15 -55.948828125 13.413671875 -55.55 13.45
			M -59.05 5.95
			Q -59.15 6.05 -59.25 6.15 -59.3 6.25 -59.4 6.35 -59.4 6.5 -59.35 6.7 -59.35 6.8 -59.3 6.9 -58.9796875 7.1517578125 -58.75 7.25 -57.8771484375 7.599609375 -57.8 6.25 -57.9 6.15 -57.95 6.1 -58.0697265625 6.0201171875 -58.2 5.95 -58.3697265625 5.8400390625 -58.55 5.75 -58.75 5.8 -58.9 5.85 -59 5.9 -59.05 5.95
			M -55.15 4.95
			Q -55.300390625 5.2875 -55.35 5.55 -55.1509765625 5.9345703125 -54.9 6.3 -54.5671875 6.4251953125 -54.05 6.4 -53.95 6.2 -53.8 6 -53.6 5.65 -53.45 5.25 -53.45 5.15 -53.45 5.1 -53.54375 4.3498046875 -54.2 4.2 -54.5341796875 4.999609375 -55.15 4.95
			M -54.8 -3.8
			Q -54.95 -3.75 -55.05 -3.7 -55.4083984375 -3.5923828125 -55.45 -3.3 -55.4783203125 -3.1916015625 -55.45 -3.05 -55.3619140625 -2.6537109375 -54.95 -2.6 -54.865625 -2.5560546875 -54.8 -2.55 -54.7 -2.6 -54.55 -2.6 -54.5 -2.65 -54.4 -2.75 -54.3 -2.9 -54.2 -3.1 -54.2 -3.2 -54.25 -3.3 -54.4 -3.7 -54.8 -3.8
			M -27.9 -57.75
			Q -27.9 -57.623046875 -27.9 -57.45 -27.9 -57.25 -27.9 -57.05 -27.6 -56.6 -27.05 -56.55 -26.85 -56.65 -26.65 -56.75 -26.3 -57 -26.2 -57.45 -26.2 -57.55 -26.25 -57.65 -26.4 -58.25 -27.05 -58.3 -27.340234375 -58.3 -27.55 -58.15 -27.7126953125 -57.90234375 -27.9 -57.75
			M -34.95 -57.7
			Q -34.95 -57.8 -35 -57.9 -35.15 -58.5 -35.8 -58.55 -36.4 -58.55 -36.65 -58.05 -36.65 -57.9 -36.65 -57.7 -36.65 -57.5 -36.65 -57.3 -36.35 -56.85 -35.8 -56.8 -35.6 -56.9 -35.4 -57 -35.05 -57.25 -34.95 -57.7
			M -21.8 -63.1
			Q -21.95 -63.05 -22.1 -63.05 -22.2 -63.05 -22.25 -63 -22.45 -62.85 -22.55 -62.65 -22.85 -62.25 -22.7 -61.75 -21.5 -60.7 -20.9 -62.05 -20.9 -62.15 -20.9 -62.25 -21 -63 -21.8 -63.15
			L -21.8 -63.1
			M -26.15 -78.5
			Q -26.85 -78.2 -27.05 -77.5 -27.85 -75.3 -25.8 -75.3 -25.65 -75.45 -25.55 -75.65 -25.25 -76.25 -25.3 -76.95 -25.2 -77.15 -25.1 -77.35 -25 -77.5 -24.95 -77.7 -24.95 -77.8 -25 -77.9 -25.15 -78.5 -25.8 -78.55 -25.95 -78.5 -26.15 -78.5
			M -14.05 -99.1
			Q -14.2 -99.05 -14.35 -99.05 -14.45 -99.05 -14.5 -99 -14.7 -98.85 -14.8 -98.65 -15.1 -98.25 -14.95 -97.75 -13.75 -96.7 -13.1 -98.05 -13.1 -98.15 -13.15 -98.25 -13.25 -99.05 -14.05 -99.15
			L -14.05 -99.1
			M -48.3 -3.5
			Q -48.4 -3.6 -48.45 -3.65 -48.60234375 -3.7515625 -48.75 -3.85 -49.183203125 -3.3759765625 -49.7 -3 -49.878125 -3.027734375 -50.05 -3.1 -50.226171875 -2.5986328125 -50.2 -2.05 -50.15 -1.6 -49.75 -1.55 -47.95 -1.35 -48.3 -3.5
			M -21.5 -92.55
			Q -21.6302734375 -91.9197265625 -22.35 -91.2 -22.7931640625 -90.7568359375 -23.2 -90.8 -23.09765625 -90.4759765625 -22.9 -90.25 -22 -89.15 -21 -90.05 -19.25 -91.65 -21.3 -92.55 -21.3859375 -92.5357421875 -21.5 -92.55
			M -6.65 -96.55
			Q -7.0541015625 -95.8576171875 -6.85 -95 -6.7 -94.8 -6.55 -94.65 -6 -94.15 -5.45 -94.6 -4.0525390625 -95.8134765625 -4.8 -96.7 -5.5998046875 -95.9873046875 -6.65 -96.55 Z"/>
			<path fill="#843120" stroke="none" d="
			M -52.75 16.05
			Q -52.0533203125 16.057421875 -51.3 15.8
			L -51.25 15.75
			Q -50.7396484375 15.412890625 -50.3 14.9 -50.1984375 14.787109375 -50.1 14.65 -50.059375 14.4986328125 -50.05 14.3 -49.8974609375 11.5234375 -51.6 10.15 -52.4326171875 11.5861328125 -53.05 13.15 -54.141796875 13.5138671875 -55.15 13.3
			L -55.15 13.3
			Q -55.35 13.4 -55.55 13.45 -55.948828125 13.413671875 -56.25 13.15 -56.4048828125 13.1744140625 -56.65 13.1 -56.720703125 13.146875 -56.8 13.2 -56.7115234375 13.410546875 -56.6 13.6
			L -56.45 13.85
			Q -56.4208984375 13.9173828125 -56.4 13.95 -56.2923828125 14.1244140625 -56.2 14.25
			L -52.75 16.05
			M -58.2 5.95
			Q -58.0697265625 6.0201171875 -57.95 6.1 -57.9 6.15 -57.8 6.25 -57.8771484375 7.599609375 -58.75 7.25 -58.798828125 7.4052734375 -58.85 7.55 -57.9298828125 7.6361328125 -56.8 6.95 -56.621875 6.8646484375 -56.45 6.75 -56.05 6.5 -56.05 6 -56.1783203125 3.21875 -58.65 2.45 -57.9296875 3.6451171875 -58.05 5.15 -58.0890625 5.5607421875 -58.2 5.95
			M -49.9 2.35
			L -49.95 2.3
			Q -50.20546875 1.99453125 -50.55 1.7
			L -53.3 0.5
			Q -53.65 0.55 -54.05 0.75 -53.55078125 2.387890625 -52.9 3.95 -52.035546875 6.0716796875 -52.6 8.1 -51.644921875 8.39765625 -50.5 8.1 -49.586328125 7.89375 -49.2 7.25
			L -49.05 7
			Q -48.9689453125 6.8787109375 -48.95 6.7
			L -48.95 6.7
			Q -48.92890625 6.116015625 -49 5.5 -49.203125 3.7732421875 -49.9 2.35
			M -53.8 -6.35
			Q -53.886328125 -6.3412109375 -53.95 -6.35 -53.9283203125 -6.23515625 -53.9 -6.15 -53.358203125 -4.191015625 -53.15 -2.2 -52.653125 -2.28203125 -52.1 -2.5 -51.65 -2.65 -51.55 -3.1 -50.7 -5.95 -53.8 -6.35
			M -26.9 -61
			Q -26.7845703125 -60.8244140625 -26.7 -60.65 -25.964453125 -60.3494140625 -26.15 -59.8 -24.4212890625 -56.6205078125 -26.45 -53.6 -27.4 -53.6 -28.3 -53.6 -29.05390625 -54.127734375 -29.9 -54.15 -29.7697265625 -53.165625 -29.4 -52.25 -29.365625 -52.18671875 -29.35 -52.15 -29.2259765625 -51.860546875 -29.1 -51.6 -28.98046875 -51.401953125 -28.9 -51.25 -28.746484375 -51.0150390625 -28.6 -50.8
			L -28.6 -50.75 -28.3 -50.45
			Q -28.1109375 -50.316796875 -27.95 -50.25 -27.19296875 -50.1810546875 -26.3 -50.35 -25.9 -50.4 -25.55 -50.65 -23.7560546875 -51.783984375 -22.9 -53.35
			L -22.85 -53.35
			Q -22.81171875 -53.4970703125 -22.8 -53.65
			L -22.75 -53.75
			Q -21.5 -58.75 -25.8 -61.2 -26.38984375 -61.2 -26.9 -61
			M -31 -58.4
			Q -32.1298828125 -60.8951171875 -34.5 -61.4 -32.9134765625 -59.6125 -32.55 -57.25 -32.7 -57.05 -32.8 -56.85 -33.72265625 -53.98515625 -36.6 -53.55 -36.0021484375 -52.6865234375 -35.15 -51.9 -34.35 -51.15 -33.3 -51.1 -32.541015625 -51.0796875 -31.95 -51.25 -31.8201171875 -51.2572265625 -31.7 -51.3 -30.6203125 -52.3564453125 -30 -53.55
			L -30 -53.55
			Q -29.9431640625 -53.8615234375 -29.95 -54.2
			L -30 -54.95
			Q -30.25 -56.7 -31 -58.4
			M -21.7 -65.9
			L -21.7 -65.9
			Q -21.337109375 -65.755078125 -21.05 -65.55 -18.9 -64.05 -18.45 -61.4 -18.65 -60.95 -19.05 -60.6 -19.7 -60 -20.65 -60.15 -21.960546875 -60.3978515625 -22.85 -59.85 -22.05078125 -58.3904296875 -20.55 -57.55 -19.79453125 -57.118359375 -19.05 -57.2 -18.66875 -57.3263671875 -18.3 -57.5 -17.371875 -57.9431640625 -16.75 -58.55 -16.150390625 -59.5123046875 -16.65 -61.15 -17.8 -64.9 -21.3 -66 -21.3263671875 -65.9921875 -21.35 -66
			L -21.5 -65.95
			Q -21.593359375 -65.910546875 -21.7 -65.9
			M -18.75 -75.35
			Q -18.25 -76.6 -19 -77.75 -20.9 -80.65 -24.55 -81 -25.15 -80.9 -25.85 -80.75 -27.2302734375 -80.465234375 -28 -79.7 -27.9349609375 -79.65234375 -27.9 -79.65 -27.1744140625 -79.6400390625 -26.4 -80.05 -26.05 -80.2 -25.75 -80.15 -22.6 -79.45 -22.95 -76 -24.15 -74.85 -25.3 -73.65 -26.0521484375 -72.878515625 -26.2 -72.3 -25.3609375 -71.84765625 -24.3 -71.6 -22.8 -71.25 -21.6 -72 -19.65 -73.2 -18.75 -75.35
			M -13.6 -101.95
			Q -13.880078125 -100.9412109375 -14.45 -100 -11.7 -98.4248046875 -11.7 -95 -11.8 -94.8 -11.9 -94.65 -12.05 -94.35 -12.25 -94.15 -12.25 -94.25 -12.25 -94.4 -12.3 -94.55 -12.3 -94.75 -12.5 -94.95 -12.7 -95.05 -13.2 -95.25 -13.7 -95.45 -15.07890625 -96.098828125 -16.45 -96.05
			L -16.45 -95.55
			Q -16.35 -92.65 -13.8 -91.7 -13.4 -91.55 -12.95 -91.6 -8.8 -92.35 -9.3 -96.8 -9.83359375 -100.971875 -13.6 -101.95
			M -48.05 -5.95
			Q -47.9951171875 -5.85390625 -48 -5.8 -45.8734375 -2.5197265625 -46.95 0.95 -46.746484375 0.1017578125 -47.65 -0.35 -48.25 -0.7 -48.85 -0.95 -49.946875 -1.4849609375 -50.85 -1.35 -50.5998046875 1.604296875 -48.05 3.95 -47.8853515625 4.0830078125 -47.75 4.2 -47.29296875 4.6189453125 -46.75 4.55 -46.998828125 3.009375 -47.3 1.45
			L -46.55 1.2
			Q -46.48671875 1.3689453125 -46.45 1.55 -45.9681640625 2.787109375 -45.6 4 -43.8375 2.91640625 -44.25 0.4 -44.4 -0.55 -44.6 -1.55 -45.239453125 -4.8328125 -48.05 -5.95
			M -16.65 -91.55
			Q -16.7 -91.65 -16.7 -91.75 -17.3 -94.7 -20.2 -95.5 -20.5529296875 -95.4412109375 -20.95 -95.4 -20.7650390625 -95.1720703125 -20.55 -95 -17.75 -92.85 -17.7 -89.2 -19.6 -88.75 -21.55 -89.05 -22.65 -89.2 -23.55 -88.55 -23.5986328125 -88.5123046875 -23.65 -88.5 -21.859765625 -84.371875 -17.1 -85.55 -17.0103515625 -85.570703125 -16.95 -85.6
			L -17.7 -86.2 -16.8 -87.25 -15.75 -86.65
			Q -13.86328125 -89.320703125 -16.65 -91.55
			M -4 -97.75
			L -4 -97.7
			Q -4.190625 -97.35546875 -4.4 -97.1 -2.578515625 -94.853125 -3.85 -91.9 -4.05 -91.9 -4.2 -91.9 -4.25 -92 -4.3 -92.05 -5.05 -92.85 -6.05 -92.4 -6.4 -92.5 -6.6 -92.85 -7.274609375 -93.921484375 -8.3 -93.8 -8.356640625 -93.0978515625 -8.3 -92.35 -8.173828125 -90.498828125 -6.95 -89.25 -6.2185546875 -88.9115234375 -5.4 -88.85 -4.520703125 -89.499609375 -3.55 -90.05
			L -3.15 -89.7 -3.55 -89.15
			Q -3.6490234375 -88.9984375 -3.75 -88.85 -3.6248046875 -88.87109375 -3.5 -88.9 -0.755859375 -91.0560546875 -1.55 -94.7 -2.1046875 -97.1775390625 -4 -97.75 Z"/>
			<path fill="#33130D" stroke="none" d="
			M -56.05 9.4
			Q -57.3 9.75 -57.95 11.1 -58.35 11.95 -57.65 12.5 -57.246875 12.8263671875 -56.9 13 -56.759765625 13.0599609375 -56.65 13.1 -56.4048828125 13.1744140625 -56.25 13.15 -55.4837890625 13.1259765625 -55.35 11.75 -55.30703125 11.673046875 -55.3 11.6 -55.25 11.5 -55.2 11.4 -54.4369140625 10.0083984375 -55.75 9.5 -55.876171875 9.44609375 -56.05 9.4
			M -60.9 6
			Q -60.8490234375 5.966796875 -60.8 5.9 -59.35 4.1 -61.05 3.1
			L -61.1 3.1
			Q -61.6068359375 3.111328125 -61.9 3.6 -62.6 4.8 -61.85 5.85 -61.39453125 6.5787109375 -60.9 6
			M -54.8 1.35
			Q -54.8384765625 1.35 -54.9 1.35 -55.0384765625 1.3595703125 -55.2 1.4 -55.3 1.4 -55.4 1.45 -56.6 2.15 -56.6 3.45 -56.65 3.95 -56.3 4.25 -55.9615234375 4.5697265625 -55.7 4.75 -55.3728515625 4.9228515625 -55.15 4.95 -54.5341796875 4.999609375 -54.2 4.2 -54.08515625 3.9177734375 -54 3.5 -53.9 3.4 -53.85 3.3 -53.1 1.8 -54.8 1.35
			M -56.35 -5
			Q -56.3 -4.7 -56.3 -4.4 -56.1220703125 -3.999609375 -55.7 -3.95 -55.6107421875 -3.90546875 -55.55 -3.9 -55.4 -4 -55.2 -4.1 -54.1 -4.7 -54.05 -5.75 -54.15 -5.85 -54.2 -5.9 -54.408984375 -6.0392578125 -54.65 -6.15 -54.708984375 -6.2044921875 -54.8 -6.25 -55.85 -6.2 -56.4 -5.35 -56.4 -5.2 -56.35 -5
			M -26.7 -60.65
			Q -26.9123046875 -60.7486328125 -27.25 -60.85 -27.4958984375 -60.866796875 -27.8 -60.9 -28.3 -60.85 -28.8 -60.5 -29.9 -59.55 -29.7 -58.2 -29.65 -58.1 -29.55 -58.05 -29.4138671875 -57.9380859375 -29.3 -57.85 -28.4755859375 -57.3140625 -27.9 -57.75 -27.7126953125 -57.90234375 -27.55 -58.15 -27.476953125 -58.291015625 -27.4 -58.45 -26.95 -58.6 -26.75 -58.85 -26.2443359375 -59.3705078125 -26.15 -59.8 -25.964453125 -60.3494140625 -26.7 -60.65
			M -38.65 -59.95
			Q -38.8 -59.45 -38.65 -59 -38.258984375 -58.3603515625 -37.7 -58.4 -37.4248046875 -58.419921875 -37.15 -58.55 -36.6 -58.85 -36.15 -59.2 -34.56015625 -60.6224609375 -35.9 -61.6 -36.1744140625 -61.778515625 -36.55 -61.95 -37.75 -61.7 -38.5 -60.7 -38.55 -60.3 -38.65 -59.95
			M -21.9 -65.8
			Q -22.06953125 -65.87109375 -22.3 -65.9 -22.45 -65.85 -22.6 -65.75 -24.3 -64.7 -24.3 -62.9 -24.15 -62.7 -24 -62.7 -23.8423828125 -62.7 -23.7 -62.75 -22.0861328125 -62.87890625 -21.4 -64.8 -21.4 -64.9 -21.4 -65 -21.47109375 -65.56953125 -21.9 -65.8
			M -27.7 -77.75
			Q -27.55 -77.95 -27.45 -78.15 -27.3 -78.4 -27.25 -78.7 -27.25 -78.8 -27.3 -78.85 -27.4400390625 -79.4099609375 -27.9 -79.65 -27.9349609375 -79.65234375 -28 -79.7 -28.136328125 -79.7294921875 -28.3 -79.75 -28.5 -79.7 -28.7 -79.7 -28.75 -79.65 -28.8 -79.65 -29 -79.45 -29.15 -79.3 -30.2 -78.2 -29.9 -76.7 -29.6 -76.4 -29.25 -76.3 -29.0376953125 -76.21796875 -28.85 -76.2 -27.1126953125 -75.671875 -27.7 -77.75
			M -16.1 -99.85
			Q -16.0658203125 -99.7736328125 -16.05 -99.7 -15.6 -98.9 -14.8 -99.4 -14.7 -99.55 -14.6 -99.75 -14.5279296875 -99.86328125 -14.45 -100 -13.880078125 -100.9412109375 -13.6 -101.95 -13.55859375 -101.971484375 -13.55 -102 -13.6 -102.1 -13.7 -102.15 -14 -102.35 -14.3 -102.5 -14.45 -102.5 -14.6 -102.45 -14.7 -102.4 -14.8 -102.3 -15 -102.15 -15.2 -102 -16.289453125 -101.147265625 -16.1 -99.85
			M -48 -5.8
			Q -47.9951171875 -5.85390625 -48.05 -5.95 -48.2142578125 -6.409375 -48.8 -6.8 -49.85 -6.45 -50.55 -5.4 -51.512890625 -3.9900390625 -50.75 -3.4 -50.490625 -3.1767578125 -50.05 -3.1 -49.878125 -3.027734375 -49.7 -3 -49.183203125 -3.3759765625 -48.75 -3.85 -48.7271484375 -3.869921875 -48.7 -3.9 -47.7884765625 -4.95859375 -48 -5.8
			M -22.75 -94.2
			Q -23.1234375 -94.1357421875 -23.45 -93.85 -24.7 -92.9 -24 -91.5 -23.969921875 -91.4400390625 -23.95 -91.4 -23.599609375 -90.776171875 -23.2 -90.8 -22.7931640625 -90.7568359375 -22.35 -91.2 -21.6302734375 -91.9197265625 -21.5 -92.55 -21.1935546875 -93.5375 -22.55 -94.2 -22.641796875 -94.2 -22.75 -94.2
			M -4 -97.7
			L -4 -97.75
			Q -4 -97.8185546875 -4 -97.9 -4.25 -98.65 -5.05 -98.75 -6.4 -98.65 -7.25 -97.5 -7.425390625 -97.23671875 -7.25 -97 -7.2306640625 -96.9806640625 -7.2 -96.95 -6.9046875 -96.7013671875 -6.65 -96.55 -5.5998046875 -95.9873046875 -4.8 -96.7 -4.5798828125 -96.864453125 -4.4 -97.1 -4.190625 -97.35546875 -4 -97.7 Z"/>
			<path fill="#323018" stroke="none" d="
			M -2.1 44.95
			Q -2.4 42 -1.35 39.6
			L -1.05 38.85
			Q -0.9591796875 38.7306640625 -0.9 38.6 -4.6580078125 39.0453125 -5.3 42.7 -5.7 45.1 -5.15 47.5 -3.05 56.4 -2.55 65.6 -2.85 65.95 -3.15 66.4 -3.25 66.55 -3.3 66.7 -3.3 67.1 -3.25 67.45 -3.1 68.3 -3 69 -1.7 79.25 -1.85 90 -2.0109375 101.1908203125 -2.25 112.35
			L -1.2 112.3 0.7 108
			Q 0.15 106.05 0.3 103.9 1.6 85.25 -0.15 66.7 -0.65 61.25 -1.1 55.9 -1.6 50.4 -2.1 44.95
			M -1.4 -62.65
			Q -1.0576171875 -63.25625 -0.7 -63.85 -3.004296875 -62.3599609375 -4.65 -60.15 -5 -59.7 -5.15 -59.2 -6.75 -54.8 -6.9 -49.95 -7 -45.65 -7.3 -41.35 -8.25 -26.4 -6.6 -11.65 -5.8 -4.5 -5.05 2.6 -5.05 3.35 -5 4.1 -4.3802734375 10.8794921875 -5.1 17.5 -5.317578125 17.8029296875 -5.55 18.1 -5.45 18.65 -5.55 19.25 -5.765234375 20.5658203125 -5.7 21.75 -5.737109375 22.1046875 -5.8 22.45 -5.6994140625 22.5103515625 -5.6 22.55 -5.1138671875 25.8287109375 -2.3 28.1 -2.05 28.05 -1.8 27.95 -1.75 27.9 -1.65 27.85 -1.6 27.7 -1.55 27.6 -1.4 27.4 -1.3 27.2 0.469140625 26.0724609375 2.1 24.75
			L 2.15 24.7
			Q 1.8181640625 24.9091796875 1.45 25.05
			L -0.5 26 -3.05 24.95 -3.1 24.45
			Q -3.8283203125 23.962109375 -4.4 23.2 -4.219921875 18.516015625 -3 14.1 -3.1728515625 -5.5291015625 -4.75 -25.2 -5.1 -29.5 -5.3 -33.75 -5.85 -45.6 -3.5 -57.05 -2.9 -59.95 -1.4 -62.65
			M -9.3 -77.05
			Q -8.9166015625 -78.4326171875 -8.45 -79.8 -8.668359375 -79.7271484375 -8.9 -79.65 -9 -79.65 -9.05 -79.55 -9.25 -79.45 -9.35 -79.25 -14.2 -71 -10.15 -62.8 -9.75 -62.7 -9.3 -62.55 -8.8357421875 -62.62734375 -8.55 -62.85 -11.2578125 -69.855078125 -9.3 -77.05 Z"/>
			<path fill="#9C924E" stroke="none" d="
			M -2.85 30.55
			Q -3.4 32.1 -3.25 33.55 -1.85 29.15 2.15 26.45 3.35 25.65 4.65 24.75 10.85 20.5 16.05 15.05 19.75 11.05 21.85 6.35 21.85 6.3 21.75 6.2 21.65 6.1 21.5 6.05 18.25 9.85 14.85 13.8 12.778515625 16.201171875 10.25 18 10.1076171875 18.1390625 9.95 18.25 5.762109375 21.21640625 2.15 24.7
			L 2.1 24.75
			Q -0.4603515625 27.2607421875 -2.75 30.05 -2.8 30.35 -2.85 30.55
			M -14.15 -26.25
			Q -14.3 -26.25 -14.4 -26.2 -14.5 -26.15 -14.55 -26.05 -14.17734375 -24.9662109375 -13.8 -23.9 -13.5935546875 -23.4 -13.4 -22.9 -12.8 -21.25 -12.1 -19.75 -11.785546875 -19.08359375 -11.5 -18.4 -8.6560546875 -11.91796875 -7.75 -4.85 -6.8 2.45 -7.7 9.75 -7.9501953125 11.6578125 -8.15 13.55 -8.609375 17.7578125 -8.85 21.95 -8.889453125 22.5759765625 -8.95 23.2 -9.273828125 29.7345703125 -9 36.35 -8.7 43.15 -8 49.8 -7.6 47.9 -7.7 45.95 -7.9 38.55 -7.85 31.1 -7.8 23.65 -6.9 16.3 -5.95 9.1 -5.9 1.7 -5.85 -5.75 -8.35 -12.7 -10.85 -19.7 -14.15 -26.25
			M -11.9 -63.2
			Q -13.4 -65.95 -12.9 -68.7 -12.95 -68.7 -13 -68.7 -13.1 -68.7 -13.2 -68.65
			L -13.25 -68.65
			Q -13.6 -68.2 -13.9 -67.75 -13.9 -65.15 -12.95 -62.7 -12.583203125 -61.7369140625 -12.25 -60.8 -11.3984375 -58.6021484375 -10.6 -56.45 -10.099609375 -55.12734375 -9.8 -53.75 -9.2537109375 -51.2666015625 -9.35 -48.6 -9.4625 -45.7875 -9.55 -43
			L -9.55 -37.65
			Q -9.444140625 -32.6236328125 -9 -27.7 -8.8 -30.8 -8.6 -34 -8.15 -41.4 -7.8 -48.8 -7.6 -52.7 -8.85 -56.25 -10.1 -59.85 -11.9 -63.2
			M -6.15 -62.8
			Q -6.921484375 -62.3962890625 -7.85 -62.3 -8.3830078125 -62.1828125 -9 -62.2 -9.15 -62.15 -9.25 -62.1 -9.35 -62.05 -9.45 -61.95 -9.45 -61.75 -9.35 -61.7 -7.35 -60.35 -5.2 -61.8 -5.15 -61.9 -5.05 -62 -2.3 -65.15 -0.2 -68.55 -2.3 -67.55 -3.5 -65.45 -4.5615234375 -63.5783203125 -6.15 -62.8 Z"/>
			<path fill="#605B2F" stroke="none" d="
			M -11.5 -18.4
			Q -11.36328125 -17.959765625 -11.25 -17.5 -7.538671875 -2.130078125 -8.15 13.55 -7.9501953125 11.6578125 -7.7 9.75 -6.8 2.45 -7.75 -4.85 -8.6560546875 -11.91796875 -11.5 -18.4
			M -9.8 -53.75
			L -10.05 -52.8 -9.55 -52.05 -9.55 -43
			Q -9.4625 -45.7875 -9.35 -48.6 -9.2537109375 -51.2666015625 -9.8 -53.75
			M 5.75 -72.55
			Q 8.35 -73 10.5 -74.7 11.75 -75.6 12.45 -77.05
			L 11.85 -78.2 4.95 -75.3
			Q 3.25 -72.25 0.2 -70.35 -1.4 -69.45 -2.65 -68.05 -4.7572265625 -65.64765625 -6.15 -62.8 -4.5615234375 -63.5783203125 -3.5 -65.45 -2.3 -67.55 -0.2 -68.55 -2.3 -65.15 -5.05 -62 -5.15 -61.9 -5.2 -61.8 -7.35 -60.35 -9.35 -61.7 -9.45 -61.75 -9.45 -61.95 -9.35 -62.05 -9.25 -62.1 -9.15 -62.15 -9 -62.2 -8.3830078125 -62.1828125 -7.85 -62.3
			L -8.4 -62.55
			Q -8.4611328125 -62.7009765625 -8.55 -62.85 -8.8357421875 -62.62734375 -9.3 -62.55 -9.75 -62.7 -10.15 -62.8 -14.2 -71 -9.35 -79.25 -9.25 -79.45 -9.05 -79.55 -9 -79.65 -8.9 -79.65 -8.668359375 -79.7271484375 -8.45 -79.8 -6.7701171875 -84.429296875 -3.95 -88.6 -3.75234375 -88.8615234375 -3.55 -89.15
			L -3.15 -89.7 -3.55 -90.05
			Q -4.520703125 -89.499609375 -5.4 -88.85 -5.6162109375 -88.62890625 -5.85 -88.45 -7.6263671875 -86.88359375 -8.85 -84.75 -9.4 -83.75 -10 -82.8
			L -10.4 -83.7 -15.75 -86.65 -16.8 -87.25 -17.7 -86.2 -16.95 -85.6 -11.9 -81.7
			Q -11.45 -79.45 -13.05 -77.7 -15.4 -75 -15.95 -71.7 -16.75 -67.2 -14.05 -63.75 -12.987890625 -62.358203125 -12.25 -60.8 -12.583203125 -61.7369140625 -12.95 -62.7 -13.9 -65.15 -13.9 -67.75 -13.6 -68.2 -13.25 -68.65
			L -13.2 -68.65
			Q -13.1 -68.7 -13 -68.7 -12.95 -68.7 -12.9 -68.7 -13.4 -65.95 -11.9 -63.2 -10.1 -59.85 -8.85 -56.25 -7.6 -52.7 -7.8 -48.8 -8.15 -41.4 -8.6 -34 -8.8 -30.8 -9 -27.7 -9.444140625 -32.6236328125 -9.55 -37.65
			L -9.55 -26.55 -11.15 -26.55
			Q -14.55 -29.9 -16.2 -34.35 -18.4 -40.4 -18.7 -46.8
			L -19.3 -47.2 -20.05 -46.45
			Q -21.8 -41.6 -20.8 -36.75 -20.55 -35.6 -20.05 -34.45 -24.25 -30.3 -29.8 -28.45
			L -26.5 -28.7 -27.55 -28.2 -28.4 -26.65 -27.2 -27.2
			Q -23.8 -29.3 -19.95 -29.7 -19 -29.6 -18.05 -29.45 -15.486328125 -26.9115234375 -13.8 -23.9 -14.17734375 -24.9662109375 -14.55 -26.05 -14.5 -26.15 -14.4 -26.2 -14.3 -26.25 -14.15 -26.25 -10.85 -19.7 -8.35 -12.7 -5.85 -5.75 -5.9 1.7 -5.95 9.1 -6.9 16.3 -7.8 23.65 -7.85 31.1 -7.9 38.55 -7.7 45.95 -7.6 47.9 -8 49.8 -8.7 43.15 -9 36.35 -9.273828125 29.7345703125 -8.95 23.2 -9.5951171875 29.39453125 -10.45 35.55 -10.6 36.7 -10.6 37.55 -10.7 47.5 -10.35 57.5 -10.2 62.8 -10.05 68.1 -19 60.4 -23.25 49 -23.45 48.5 -23.45 47.95
			L -24.05 47.2
			Q -22.9 43.75 -21.3 40.45 -20.95 39.75 -20.85 38.95 -20.75 38.2 -20.7 37.45
			L -21.65 38.45 -22.8 37.35 -23.7 37.6 -23.8 36.75
			Q -26.35 39.15 -27.45 42.65 -28.15 44.75 -28.95 46.85 -36.85 42.9 -40.6 35.3 -41.95 32.55 -42.55 29.5 -44.1 21.75 -43.8 13.8 -43.7 11.9 -44.05 10 -44.627734375 7.009765625 -45.6 4 -45.9681640625 2.787109375 -46.45 1.55 -46.48671875 1.3689453125 -46.55 1.2
			L -47.3 1.45
			Q -46.998828125 3.009375 -46.75 4.55 -46.2904296875 7.35625 -46 10.1 -45 20.35 -44.65 30.65 -44.5 35.05 -43.2 39.1 -42.7 40.7 -41.6 42.05 -39.7 44.35 -36.9 45.55 -35.95 46 -35.05 46.95 -33.7 48.35 -32.15 49.65 -25.8 55.05 -21.2 61.9 -18.95 65.25 -17.15 68.7 -16.5 70 -15.55 71.2
			L -15.55 72.35
			Q -8.4 80.55 -9.25 91.3 -9.8 98.55 -9.7 105.85 -9.65 109.65 -9.4 113.45 -9.4 113.5 -9.25 113.55
			L -8.5 111.65 -8.4 112.85
			Q -7.15 113.65 -5.75 113.4 -4.75 113.15 -4.05 112.25 -3.8 111.85 -3.55 111.5
			L -2.25 112.35 -2.25 112.35
			Q -2.0109375 101.1908203125 -1.85 90 -1.7 79.25 -3 69 -3.1 68.3 -3.25 67.45 -3.3 67.1 -3.3 66.7 -3.25 66.55 -3.15 66.4 -2.85 65.95 -2.55 65.6 -3.05 56.4 -5.15 47.5 -5.7 45.1 -5.3 42.7 -4.6580078125 39.0453125 -0.9 38.6 2.8150390625 30.8365234375 9.25 25.2 19.15 16.5 26.1 5.35 27.5 3.15 29.15 1.1
			L 32.2 1.85 35.35 -0.4 35.85 -2.65 35.2 -3.05 32.6 -1.05
			Q 29.1 -2.05 26.2 -0.35 25.6 0.05 25 0.5
			L 24.35 -12.05 23.95 -12.4 23.1 -12.15
			Q 20.3 -5.45 21.5 2.05
			L 22.15 2.5
			Q 22.2 4.8 20.35 6.95 15.488671875 12.57890625 10.25 18 12.778515625 16.201171875 14.85 13.8 18.25 9.85 21.5 6.05 21.65 6.1 21.75 6.2 21.85 6.3 21.85 6.35 19.75 11.05 16.05 15.05 10.85 20.5 4.65 24.75 3.35 25.65 2.15 26.45 -1.85 29.15 -3.25 33.55 -3.4 32.1 -2.85 30.55 -2.8 30.35 -2.75 30.05 -0.4603515625 27.2607421875 2.1 24.75 0.469140625 26.0724609375 -1.3 27.2 -1.4 27.4 -1.55 27.6 -1.6 27.7 -1.65 27.85 -1.75 27.9 -1.8 27.95 -2.05 28.05 -2.3 28.1 -5.1138671875 25.8287109375 -5.6 22.55 -5.6994140625 22.5103515625 -5.8 22.45 -5.737109375 22.1046875 -5.7 21.75 -5.765234375 20.5658203125 -5.55 19.25 -5.45 18.65 -5.55 18.1 -5.317578125 17.8029296875 -5.1 17.5 -4.3802734375 10.8794921875 -5 4.1 -5.05 3.35 -5.05 2.6 -5.8 -4.5 -6.6 -11.65 -8.25 -26.4 -7.3 -41.35 -7 -45.65 -6.9 -49.95 -6.75 -54.8 -5.15 -59.2 -5 -59.7 -4.65 -60.15 -3.004296875 -62.3599609375 -0.7 -63.85 2.1103515625 -68.555078125 5.75 -72.55
			M -12.4 -75.3
			L -12.4 -75.5 -12.15 -75.5 -12.15 -75.3 -12.4 -75.3 Z"/>
		</g>
	</defs>
	<g transform="matrix( 0.687774658203125, -0.0000152587890625, 0.0000152587890625, 0.7053375244140625, 163.05,142) ">
		<g transform="matrix( 1, 0, 0, 1, 0,0) ">
			<use xlink:href="#Layer10_0_FILL"/>
		</g>
		<g transform="matrix( 1, 0, 0, 1, 0,0) ">
			<use xlink:href="#Layer10_1_FILL"/>
		</g>
		<g id="yz9" transform="matrix( 0.6289215087890625, -0.180938720703125, 0.0502777099609375, 0.875152587890625, 3.9,-21.55) ">
			<g transform="matrix( 1, 0, 0, 1, -116.15,-83.1) ">
				<use filter="url(#Filter_1)" xlink:href="#l2_0_Layer0_0_FILL"/>
			</g>
		</g>
		<g id="yz8" transform="matrix( 0.235260009765625, -0.205413818359375, 0.4154052734375, 0.77032470703125, -14.4,-50.45) ">
			<g transform="matrix( 1, 0, 0, 1, -116.15,-83.1) ">
				<use filter="url(#Filter_1)" xlink:href="#l2_0_Layer0_0_FILL"/>
			</g>
		</g>
		<g id="yz7" transform="matrix( 0.1562652587890625, -0.2086334228515625, 0.4770965576171875, 0.56103515625, -16.5,-9.5) ">
			<g transform="matrix( 1, 0, 0, 1, -116.15,-83.1) ">
				<use filter="url(#Filter_1)" xlink:href="#l2_0_Layer0_0_FILL"/>
			</g>
		</g>
		<g id="yz6" transform="matrix( 0.457000732421875, -0.457000732421875, 0.2582244873046875, 0.2582244873046875, 10.4,-88.65) ">
			<g transform="matrix( 1, 0, 0, 1, -116.15,-83.1) ">
				<use xlink:href="#l2_0_Layer0_0_FILL"/>
			</g>
		</g>
		<g id="yz5" transform="matrix( -0.3031463623046875, 0.0673980712890625, -0.000579833984375, 0.878143310546875, -37.65,26.2) ">
			<g transform="matrix( 1, 0, 0, 1, -116.15,-83.1) ">
				<use xlink:href="#l2_0_Layer0_0_FILL"/>
			</g>
		</g>
		<g id="yz4" transform="matrix( -0.359405517578125, -0.2621002197265625, -0.346038818359375, 0.802886962890625, 25.3,-22.25) ">
			<g transform="matrix( 1, 0, 0, 1, -116.15,-83.1) ">
				<use xlink:href="#l2_0_Layer0_0_FILL"/>
			</g>
		</g>
		<g id="yz3" transform="matrix( -0.0309295654296875, -0.767791748046875, -0.2827606201171875, 0.011383056640625, -24.25,28.9) ">
			<g transform="matrix( 1, 0, 0, 1, 0,0) ">
				<use xlink:href="#l1_0_Layer0_0_FILL"/>
			</g>
		</g>
		<g transform="matrix( 1, 0, 0, 1, 0,0) ">
			<use xlink:href="#Layer2_0_FILL"/>
		</g>
		<g id="yz2" transform="matrix( 0.32464599609375, -0.00592041015625, -0.1754150390625, 0.8602752685546875, 6.9,33.15) ">
			<g transform="matrix( 1, 0, 0, 1, -116.15,-83.1) ">
				<use xlink:href="#l2_0_Layer0_0_FILL"/>
			</g>
		</g>
		<g id="yz1" transform="matrix( 0.324005126953125, -0.5704498291015625, 0.552276611328125, 0.5258941650390625, 5.5,-83.5) ">
			<g transform="matrix( 1, 0, 0, 1, 0,0) ">
				<use xlink:href="#l1_0_Layer0_0_FILL"/>
			</g>
		</g>
	</g>
</svg>
